PathFileType	4	(X/Y/Z)	66_2_66_p1_0-155_filt_butterworth.trc
DataRate	CameraRate	NumFrames	NumMarkers	Units	OrigDataRate	OrigDataStartFrame	OrigNumFrames
48.0	48.0	5	27	m	48.0	77	155
Frame#	Time	RHip			RKnee			RAnkle			RBigToe			RSmallToe			RHeel			LHip			LKnee			LAnkle			LBigToe			LSmallToe			LHeel			Neck			Head			Nose			RShoulder			RElbow			RWrist			RThumb			RIndex			RPinky			LShoulder			LElbow			LWrist			LThumb			LIndex			LPinky			
		X1	Y1	Z1	X2	Y2	Z2	X3	Y3	Z3	X4	Y4	Z4	X5	Y5	Z5	X6	Y6	Z6	X7	Y7	Z7	X8	Y8	Z8	X9	Y9	Z9	X10	Y10	Z10	X11	Y11	Z11	X12	Y12	Z12	X13	Y13	Z13	X14	Y14	Z14	X15	Y15	Z15	X16	Y16	Z16	X17	Y17	Z17	X18	Y18	Z18	X19	Y19	Z19	X20	Y20	Z20	X21	Y21	Z21	X22	Y22	Z22	X23	Y23	Z23	X24	Y24	Z24	X25	Y25	Z25	X26	Y26	Z26	X27	Y27	Z27	
77	1.6041666666666667	0.55258258023905	0.772280810477084	0.7456527152505736	0.5541140856317542	0.9778135480499095	1.2147669967131032	0.5222322908800952	1.0683940930827909	1.5978761643678314	0.4921145007693528	0.9406254501429565	1.6641509942599502	0.5599267458879001	0.9337949644351728	1.6469008022587548	0.5187959632597207	1.1276654456279447	1.64196222681951	0.3846307114051861	0.8465715372322545	0.7542142098907296	0.37546641924692703	0.9737724314300447	1.2045693484932058	0.36147678222414026	1.1176944809665739	1.604556121648323	0.34434944438629184	0.9218575221164593	1.6470242844475993	0.2916119231917744	0.9813864896538478	1.6414111526346247	0.37936930014942244	1.1991794687646462	1.667484514461588	0.45376456605080123	0.6753393440085659	0.21103947882346005	0.420479576688229	0.5607268775402805	-0.030797854291271277	0.40589591457077256	0.530930500532938	0.13078271680914308	0.579654491888438	0.6914488869963843	0.24961022461384977	0.6304794600773502	0.5274880150059953	0.47597934449483387	0.5217482731116794	0.4352872306258418	0.3297474189391029	0.4348073965341954	0.4458928131490134	0.24055637363433152	0.4202532339893403	0.38669620884361083	0.226497383463172	0.4309464422538756	0.3408459171360391	0.2797603286246399	0.3264266295898679	0.7583135267651776	0.2365191102864208	0.20111629662954195	0.6996282737902771	0.46983420151153343	0.24331084528004382	0.5612455208945135	0.3146112310685616	0.26568400575998236	0.4953346493990055	0.2254544396540448	0.292421889590961	0.41911929580169127	0.23291995267643356	0.3020676393188486	0.44869344897252317	0.2661303626881373
78	1.625	0.5540373668467589	0.776308217239052	0.7462911163433523	0.5557304048574712	0.9825553064316679	1.2151715991841827	0.5236655283560476	1.0695199874571304	1.5970202265778244	0.4920667445542282	0.940448979971698	1.6637716528163322	0.5599258201551474	0.9366008260047056	1.6480420840106944	0.5190392544298783	1.1285653115755903	1.6422268086599785	0.38466513825152343	0.8464918920364913	0.754508481117132	0.37523960015161106	0.9743700233852712	1.2063315627448143	0.36144666551958515	1.1178419961529298	1.60462449391645	0.3445103469010221	0.9219078315454047	1.647139521566466	0.2916246297271323	0.9812986604914911	1.641436295240422	0.3790445892301474	1.1990710244062193	1.6676150499522384	0.45297057599463525	0.6731665567354859	0.20948397763856186	0.4221876839572041	0.5668380292581858	-0.0341851483237149	0.4062360881902494	0.5311350431626897	0.13017647775966887	0.5797057949575949	0.6923886189483626	0.24940134010978693	0.6294077584783997	0.5235553963864444	0.4759657700749065	0.5212232550464421	0.434681597101901	0.32660671315595496	0.4397115678980076	0.4518073359822716	0.23154641787447583	0.41990757977303755	0.39793282845173156	0.21443912912470298	0.4296080888199459	0.3537538785781426	0.27029408419974693	0.32530312132637274	0.7619159966869823	0.23623803218405526	0.20125283518515755	0.6986342584841971	0.4695910644722458	0.2455966773986859	0.5563429097456789	0.31269989970185563	0.2684789212721592	0.48686900718323095	0.22342589205166818	0.29776261202333576	0.4211082962266702	0.22816840576795408	0.3033231988243811	0.45416632650460154	0.26036141940808505
79	1.6458333333333333	0.5561551349593171	0.7825452681597257	0.7466232804079087	0.5564625558310216	0.984468851012577	1.2163665408629791	0.5252710842073922	1.0701555983635311	1.5969213789895842	0.49191137335256196	0.939872578290666	1.663642534838838	0.560901636844856	0.9393937655472411	1.6491438647614822	0.5189301303402959	1.128026208838909	1.6420423830523727	0.3847200009178164	0.8464947857305376	0.7544585109829615	0.3751654207389968	0.974830298617443	1.2076272054100938	0.3614159038628905	1.117976291990653	1.6046570157778073	0.3445976713704718	0.9219006062906638	1.6471828416162189	0.291692144799761	0.9813426026454932	1.6420841433968616	0.37863484907157474	1.1988775029310816	1.6675444628337548	0.45199422083965807	0.6739120457928728	0.20545175266132112	0.42184737260039556	0.5682842070067967	-0.03686091585578511	0.40599087806873513	0.534030223552028	0.12861895209072624	0.5794705311542884	0.6958208949549922	0.24814388978261137	0.6259747095464072	0.5263466611687873	0.4760732335307136	0.5225102604126213	0.43402998811363336	0.32241387657104875	0.4475203515420998	0.46253761391579773	0.2187967796802303	0.4265100486180157	0.41190336791568266	0.1983406574378348	0.4321602985951428	0.3654727288393347	0.26041653217438665	0.3238552657959205	0.7699789594916283	0.2355784372663453	0.2035316702959198	0.6951459321423398	0.46853042736010186	0.24626489718936628	0.5531278910045521	0.3098781247644174	0.2726256592712949	0.4858873841160962	0.22490179168145696	0.302916757578891	0.43011598564124626	0.21748587350424672	0.2921374540791717	0.46107411948892063	0.24694474899993285
80	1.6666666666666667	0.5573891621051169	0.7866222117953586	0.7465514945989852	0.5561861838725315	0.9843882394622996	1.2176225470301103	0.5251810635758263	1.0700868230379976	1.5968649379128146	0.49202246410580425	0.9399692466272493	1.663745538978187	0.5620378491370828	0.9390380401717601	1.6489880337069855	0.5188641852505027	1.1276750865453002	1.6419797578270534	0.3847338582031695	0.8465405014664916	0.7543948463228559	0.3754249098418071	0.9751013360690676	1.208146502248833	0.3614947285347325	1.1180218874895476	1.604614323642704	0.34456780421797073	0.9219537829211923	1.6471735927316784	0.2918228796060745	0.981838262391341	1.643024933460508	0.3784065071881185	1.198987627537103	1.6665853502708539	0.4512448679000124	0.6787966912520083	0.20071880891023317	0.41994867389355073	0.5628660918700104	-0.03723294455524067	0.40611108318195144	0.5374397833366724	0.12735751074119167	0.5785071311467598	0.7011727318053147	0.24621606963409043	0.6214253346216385	0.5340330999459062	0.4762842787753986	0.5264645580360594	0.4335880272587437	0.31874635569580473	0.45957948647148594	0.47846558787230165	0.20607270039824604	0.4434362374585174	0.42584323036715827	0.18501270019940985	0.44241509563368325	0.3724364195747911	0.25218025555007967	0.3206275679299533	0.7694778678767077	0.23567791843645036	0.20843660621103308	0.6881039654250884	0.46730679671812225	0.24621063694085735	0.5521874287056254	0.30472122538236623	0.27461279198133876	0.4976268147826094	0.22466851185249223	0.30345169732934985	0.4443531872123208	0.20376293352350075	0.2794987539997738	0.46773767871639355	0.23212234453707756
81	1.6875	0.5578299026280659	0.7873607689036467	0.7463275594821263	0.5545938733835426	0.982121428408804	1.217546091647929	0.5234470512730934	1.0694317074618125	1.5965871788406194	0.49255447253116436	0.9410884808509514	1.6641217853343153	0.5625240422469154	0.9336348008839989	1.6468334713594095	0.5187967013113688	1.1276236704336169	1.6419986045434274	0.3846507444017678	0.8465774444834098	0.7542591699130112	0.3758469488045081	0.9753408170931576	1.2083691647810972	0.36170264052866297	1.1180820978132182	1.6045586258022375	0.3444733034592605	0.922171585299339	1.6471818523370978	0.29197158612624924	0.9826782581649574	1.6426114324004382	0.3783293824545782	1.1995976174616216	1.665136998363815	0.45065411833635755	0.6842708897537422	0.19801930768016518	0.41734077123637786	0.554901674618958	-0.035803688858878746	0.4071405078419873	0.5404201291811284	0.12744010723023128	0.577156018346597	0.7053805851433718	0.24482360215453722	0.6181169015955161	0.5399363785702871	0.4765622351116704	0.5318013888383327	0.4333559176859191	0.3170894356615054	0.47291611275354056	0.4945937182498501	0.19802462906038515	0.46479864805357607	0.4348208110687132	0.1776102907253524	0.45935833622303784	0.3799431357647257	0.24511994515355381	0.31482314151533336	0.7543065827137231	0.23754139372269106	0.21371367743278274	0.6810674322532606	0.46700286122206464	0.24599006312400473	0.5518031932556177	0.2981203981325819	0.2737903044167917	0.51778324106897	0.2205049896414948	0.29654927538008385	0.4603349487833289	0.1915615100004434	0.2719815218579609	0.4749270502428703	0.2225489636986366
